<svg width="512" height="512" viewBox="0 0 512 512" fill="none" xmlns="http://www.w3.org/2000/svg">
<g clip-path="url(#clip0_57_29)">
<path d="M362.015 373.031C356.881 368.693 353.763 361.84 354.581 355.169C355.398 348.497 360.464 342.364 367.034 340.948C373.604 339.531 381.094 343.453 383.089 349.871C384.188 337.497 385.453 324.604 392.032 314.067C397.989 304.525 408.307 297.698 419.489 296.476C430.67 295.255 442.444 299.868 449.417 308.694C456.391 317.519 458.099 330.35 453.214 340.483C449.616 347.947 442.987 353.502 436.042 358.022C413.599 372.502 386.681 378.391 360.242 374.604L362.015 373.031Z" fill="#F2F2F2"/>
<path d="M438.36 300.124C429.133 307.639 420.669 316.044 413.089 325.217C401.227 339.524 391.628 355.565 384.626 372.781C384.114 374.037 386.153 374.584 386.66 373.342C398.116 345.363 416.403 320.702 439.851 301.615C440.904 300.758 439.404 299.273 438.36 300.124Z" fill="white"/>
<path d="M184.088 371.852C191.14 365.894 195.423 356.481 194.3 347.318C193.176 338.155 186.219 329.732 177.195 327.786C168.171 325.84 157.884 331.226 155.143 340.042C153.634 323.046 151.896 305.338 142.86 290.865C134.678 277.759 120.507 268.382 105.149 266.704C89.7902 265.027 73.6199 271.363 64.0414 283.485C54.463 295.607 52.1177 313.23 58.8262 327.148C63.7681 337.4 72.8729 345.03 82.4124 351.237C112.847 371.041 150.6 379.3 186.524 374.013" fill="#F2F2F2"/>
<path d="M79.229 271.714C91.9016 282.036 103.527 293.58 113.938 306.18C124.35 318.767 133.517 332.334 141.31 346.691C145.666 354.744 149.579 363.029 153.032 371.509C153.736 373.234 150.934 373.985 150.238 372.28C144.123 357.329 136.557 343.014 127.649 329.54C118.784 316.114 108.638 303.58 97.3534 292.114C90.9706 285.632 84.2362 279.505 77.1807 273.762C75.7345 272.585 77.7948 270.546 79.229 271.714L79.229 271.714Z" fill="white"/>
<path d="M342.844 375.217H174.609V202.603C174.609 165.878 204.486 136 241.211 136H276.242C312.966 136 342.844 165.878 342.844 202.603V375.217Z" fill="#F2F2F2"/>
<path d="M307.814 375.217H174.609V202.603C174.572 188.531 179.028 174.814 187.328 163.45C187.634 163.033 187.939 162.622 188.254 162.215C192.269 156.949 197.046 152.312 202.429 148.456C202.733 148.235 203.038 148.017 203.348 147.8C207.852 144.683 212.725 142.135 217.854 140.214C218.159 140.098 218.469 139.982 218.779 139.871C223.418 138.216 228.228 137.082 233.118 136.49C233.421 136.449 233.732 136.416 234.043 136.384C238.809 135.874 243.615 135.874 248.381 136.384C248.691 136.416 249.002 136.449 249.309 136.491C254.198 137.082 259.006 138.216 263.644 139.871C263.954 139.982 264.264 140.098 264.57 140.214C269.636 142.111 274.451 144.621 278.907 147.688C279.217 147.901 279.527 148.118 279.832 148.335C282.849 150.489 285.683 152.889 288.305 155.509C290.408 157.611 292.367 159.852 294.17 162.216C294.484 162.622 294.789 163.033 295.094 163.45C303.395 174.814 307.851 188.53 307.814 202.603V375.217Z" fill="#CCCCCC"/>
<path d="M296.983 298.013C301.056 298.013 304.358 294.711 304.358 290.639C304.358 286.566 301.056 283.264 296.983 283.264C292.91 283.264 289.608 286.566 289.608 290.639C289.608 294.711 292.91 298.013 296.983 298.013Z" fill="#240046"/>
<path d="M329.062 370.047H323.411L320.723 348.251L329.063 348.252L329.062 370.047Z" fill="#FFB8B8"/>
<path d="M319.375 368.432H330.273V375.294H312.513C312.513 374.393 312.691 373.501 313.036 372.668C313.381 371.836 313.886 371.079 314.523 370.442C315.16 369.805 315.917 369.3 316.749 368.955C317.582 368.61 318.474 368.432 319.375 368.432V368.432Z" fill="#2F2E41"/>
<path d="M357.178 370.047H351.527L348.839 348.251L357.179 348.252L357.178 370.047Z" fill="#FFB8B8"/>
<path d="M347.491 368.432H358.389V375.294H340.629C340.629 374.393 340.807 373.501 341.152 372.668C341.497 371.836 342.002 371.079 342.639 370.442C343.276 369.805 344.033 369.3 344.865 368.955C345.698 368.61 346.59 368.432 347.491 368.432V368.432Z" fill="#2F2E41"/>
<path d="M300.715 292.099C300.309 291.5 300.038 290.82 299.923 290.105C299.808 289.39 299.852 288.659 300.05 287.963C300.248 287.267 300.596 286.622 301.071 286.075C301.545 285.528 302.133 285.092 302.794 284.797L322.003 231.853L331.455 237.011L309.523 287.607C309.945 288.75 309.933 290.008 309.489 291.143C309.045 292.278 308.2 293.211 307.115 293.765C306.029 294.319 304.778 294.455 303.598 294.148C302.419 293.841 301.393 293.112 300.715 292.099V292.099Z" fill="#FFB8B8"/>
<path d="M354.292 302.048C353.664 301.688 353.122 301.194 352.706 300.603C352.289 300.011 352.007 299.335 351.88 298.622C351.753 297.909 351.784 297.177 351.97 296.478C352.156 295.778 352.494 295.128 352.958 294.573L347.008 238.567L357.764 239.059L360.238 294.148C361.118 294.991 361.659 296.127 361.758 297.342C361.857 298.556 361.506 299.765 360.774 300.739C360.041 301.713 358.976 302.384 357.781 302.625C356.587 302.866 355.345 302.661 354.292 302.048V302.048Z" fill="#FFB8B8"/>
<path d="M337.132 222.046C343.384 222.046 348.452 216.978 348.452 210.725C348.452 204.473 343.384 199.405 337.132 199.405C330.879 199.405 325.811 204.473 325.811 210.725C325.811 216.978 330.879 222.046 337.132 222.046Z" fill="#FFB8B8"/>
<path d="M354.219 289.31H320.09L320.131 289.045C320.192 288.648 326.214 249.203 321.773 236.299C321.327 235.031 321.366 233.643 321.883 232.402C322.399 231.161 323.356 230.155 324.57 229.577H324.57C330.918 226.588 343.103 222.907 353.387 231.84C354.9 233.176 356.082 234.846 356.839 236.718C357.595 238.589 357.906 240.611 357.747 242.624L354.219 289.31Z" fill="#240046"/>
<path d="M326.645 255.033L311.279 251.915L318.482 234.848C318.913 233.195 319.982 231.78 321.454 230.914C322.927 230.048 324.683 229.802 326.337 230.229C327.991 230.656 329.409 231.721 330.278 233.192C331.148 234.662 331.398 236.418 330.975 238.073L326.645 255.033Z" fill="#240046"/>
<path d="M346.324 260.821L345.401 239.645C344.7 235.665 346.979 231.902 350.483 231.287C353.989 230.674 357.412 233.435 358.115 237.445L361.588 257.231L346.324 260.821Z" fill="#240046"/>
<path d="M353.084 286.775C358.576 307.69 359.175 334.282 357.693 363.288L350.319 362.366L336.952 307.056L329.577 363.288L321.281 362.827C318.802 332.393 316.389 306.265 320.359 289.08L353.084 286.775Z" fill="#2F2E41"/>
<path d="M344.591 219.474C342.479 221.724 338.557 220.516 338.281 217.443C338.26 217.204 338.261 216.964 338.286 216.726C338.428 215.365 339.215 214.129 339.026 212.691C338.984 212.334 338.85 211.993 338.639 211.701C336.956 209.447 333.006 212.709 331.417 210.669C330.443 209.418 331.588 207.448 330.841 206.05C329.854 204.205 326.933 205.115 325.101 204.104C323.062 202.98 323.184 199.852 324.526 197.95C326.162 195.63 329.032 194.392 331.865 194.213C334.699 194.035 337.513 194.801 340.158 195.832C343.164 197.003 346.144 198.622 347.994 201.265C350.244 204.479 350.46 208.8 349.335 212.558C348.651 214.844 346.315 217.637 344.591 219.474Z" fill="#2F2E41"/>
<path d="M442.164 375.514H101.87C101.724 375.513 101.585 375.455 101.483 375.353C101.38 375.25 101.323 375.11 101.323 374.965C101.323 374.82 101.38 374.68 101.483 374.578C101.585 374.475 101.724 374.417 101.87 374.416H442.164C442.309 374.417 442.448 374.475 442.551 374.578C442.653 374.68 442.711 374.82 442.711 374.965C442.711 375.11 442.653 375.25 442.551 375.353C442.448 375.455 442.309 375.513 442.164 375.514V375.514Z" fill="#3F3D56"/>
<path d="M271.171 325.207H211.252C210.463 325.212 209.704 324.903 209.142 324.348C208.581 323.794 208.262 323.04 208.256 322.251V188.506C208.262 187.717 208.581 186.962 209.142 186.408C209.704 185.854 210.463 185.545 211.252 185.549H271.171C271.961 185.545 272.719 185.854 273.281 186.408C273.842 186.962 274.161 187.717 274.167 188.506V322.251C274.161 323.04 273.842 323.794 273.281 324.348C272.719 324.903 271.961 325.212 271.171 325.207V325.207Z" fill="white"/>
<path d="M274.167 228.824H208.256V229.746H274.167V228.824Z" fill="#CCCCCC"/>
<path d="M274.398 281.42H208.486V282.342H274.398V281.42Z" fill="#CCCCCC"/>
<path d="M229.919 185.549H228.997V325.668H229.919V185.549Z" fill="#CCCCCC"/>
<path d="M252.965 185.549H252.043V325.668H252.965V185.549Z" fill="#CCCCCC"/>
</g>
<defs>
<clipPath id="clip0_57_29">
<rect width="401" height="239.742" fill="white" transform="translate(55 136)"/>
</clipPath>
</defs>
</svg>
